<?xml version="1.0" standalone="no"?><!DOCTYPE svg PUBLIC "-//W3C//DTD SVG 1.1//EN" "http://www.w3.org/Graphics/SVG/1.1/DTD/svg11.dtd"><svg t="1688194133576" class="icon" viewBox="0 0 1228 1024" version="1.1" xmlns="http://www.w3.org/2000/svg" p-id="1514" xmlns:xlink="http://www.w3.org/1999/xlink" width="239.84375" height="200"><path d="M857.23116 419.240086h-455.705693v50.921801h296.731702v50.871228H811.48639L935.486312 630.091971h110.512664c10.729759-30.550833 40.510741-50.201721 72.818827-48.05031 42.561003-3.544208 79.939354 28.086344 83.482759 70.648149 0.316289 3.793065 0.350808 7.604594 0.106768 11.402477 3.158078 42.081752-28.397817 78.753669-70.480372 81.910944-0.776274 0.057799-1.55897 0.105162-2.338455 0.139682-37.45943 2.428365-71.826609-20.763521-83.588724-56.409505H919.33548L784.517495 574.592803H533.8027v42.849998H636.365581c-0.358033 16.615633 0 76.306841 0 76.306841h51.281441l88.972067 114.95597h64.718123c8.783054-26.846072 33.753866-45.063222 61.998356-45.230197 39.378039-4.645602 75.065766 23.50978 79.710565 62.887819 0.325923 2.751076 0.491292 5.519813 0.494503 8.290156 6.457443 38.173891-19.252717 74.354516-57.425805 80.813565a69.97463 69.97463 0 0 1-11.189743 0.980176c-34.589545-0.765838-65.967226-20.462484-81.69179-51.281441h-75.64456c1.641655 2.666786-94.357818-114.699085-94.357818-114.699084 1.282016-0.307459-188.714834 0-188.714835 0a528.658581 528.658581 0 0 1 0 59.383749H614.719822l24.255549 62.203863a24.408074 24.408074 0 0 1-5.384949 28.307105c-94.357818 84.819363-266.66333 70.665811-266.66333 70.66581-15.04703-5.892296-24.761291-20.615812-24.255549-36.768249-4.178393-40.483446-40.383101-69.915225-80.865745-65.737635a73.716318 73.716318 0 0 0-16.158057 3.533772c-87.895559 17.53801-79.38384-32.410037-76.408792-37.742807 3.589966-49.897473-28.768695-47.076557-28.768695-47.076556-45.794541-2.820114-24.255549-22.614697-24.255549-22.614697 35.07602-16.973666 8.102309-22.614697 8.102309-22.614697-56.409504-4.256261-26.973712-28.307105-26.973712-28.307105 45.845918-57.948405-29.640498-65.02478-29.640498-65.02478-97.075981-1.383967 0-96.100622 0-96.100621a125.943416 125.943416 0 0 0 26.973712-115.947385 280.353687 280.353687 0 0 1 24.306926-186.715949c57.389681-85.827636 152.83926-138.493044 256.048367-141.280244A336.308826 336.308826 0 0 1 614.976706 187.808512h88.972068l145.486733-71.91411h102.468958c6.576252-34.475552 37.794183-58.660458 72.818826-56.409504 43.656777-2.524696 81.094533 30.818957 83.616821 74.474931a79.289114 79.289114 0 0 1-0.077868 10.344432c-0.738544 39.072185-28.933262 72.2015-67.384909 79.178332a101.231896 101.231896 0 0 1-88.972068-39.589166h-91.547337L704.100496 261.450173h-208.045419v53.742719h202.202092v53.742718H854.514602C862.052567 323.909316 892.557643 299.826361 939.061025 300.269488c1.477088 0.071446 2.954979 0.183833 4.425644 0.337161C983.270105 299.826361 1021.802832 329.528672 1024.553105 368.384111c0.390947 4.879207 0.933616 6.044019 0.460787 10.916-0.219155 39.610038-14.717093 90.979783-81.07928 92.050672-1.12066 0.018464-4.281147-0.535444-8.027651 0-20.33645 0-58.869177-8.563096-78.675801-52.110697z" p-id="1515" fill="#bfbfbf" data-spm-anchor-id="a313x.7781069.0.i1" class="selected"></path></svg>